# xmcd
#
# Track frame offsets:
#	150
#	3330
#	21552
#	40445
#	58101
#	65703
#	85503
#	102958
#	119668
#	137917
#	162064
#	184691
#	206405
#
# Disc length: 3028 seconds
#
# Revision: 0
# Processed by: cddbd v1.5PL3 Copyright (c) Steve Scherf et al.
# Submitted via: dBpowerAMP V4.0
#
DISCID=b50bd20d
DTITLE=Sat-R-Day - That's how we Livin'
DYEAR=2003
DGENRE=RnB
TTITLE0=Intro
TTITLE1=The Rules (feat. Ragga P.)
TTITLE2=Don't Go (feat. Coolio)
TTITLE3=Freakness (feat. J. Colin and M.G.)
TTITLE4=Interlude
TTITLE5=Hot Shot (feat. Big Eezy and J-Rocka)
TTITLE6=Anything
TTITLE7=You and I
TTITLE8=That's how we're Livin' (feat. J. Colin)
TTITLE9=I need a Refill (feat. The CC Ryders)
TTITLE10=It takes an Angel
TTITLE11=Don't Go (Remix)
TTITLE12=Lovely Day (Bonus Track)
EXTD=buyed at buch.de\nLink: http://www.buch.de/pages/functions.phtml?f=detail&IdentNr=4406035&postr=2\n\nGreetings\nMichael
EXTT0=
EXTT1=
EXTT2=
EXTT3=
EXTT4=
EXTT5=
EXTT6=
EXTT7=
EXTT8=
EXTT9=
EXTT10=
EXTT11=
EXTT12=
PLAYORDER=
